<?xml version="1.0" standalone="no"?>
<!DOCTYPE svg PUBLIC "-//W3C//DTD SVG 20010904//EN"
 "http://www.w3.org/TR/2001/REC-SVG-20010904/DTD/svg10.dtd">
<svg version="1.0" xmlns="http://www.w3.org/2000/svg"
 width="640.000000pt" height="640.000000pt" viewBox="0 0 640.000000 640.000000"
 preserveAspectRatio="xMidYMid meet">

<g transform="translate(0.000000,640.000000) scale(0.100000,-0.100000)"
fill="#000000" stroke="none">
<path d="M0 3200 l0 -3200 3200 0 3200 0 0 3200 0 3200 -3200 0 -3200 0 0
-3200z m3140 1791 c0 -8 241 -539 699 -1543 99 -218 181 -400 181 -403 0 -3
-28 -5 -62 -5 l-63 0 -379 838 c-209 460 -382 841 -386 845 -7 8 -27 -33 -381
-813 l-198 -435 206 -3 c113 -1 208 -1 210 1 2 2 -31 78 -72 169 l-75 166 134
295 c74 162 143 312 154 333 l20 39 17 -40 c10 -22 46 -101 80 -175 35 -74 74
-160 88 -190 13 -30 34 -75 45 -100 12 -25 60 -130 107 -235 48 -104 135 -299
196 -431 60 -133 109 -246 109 -253 0 -8 -80 -11 -302 -9 l-301 3 -70 152 -69
152 -242 3 c-132 2 -253 2 -268 0 -21 -3 -30 -13 -48 -54 -12 -27 -43 -97 -70
-154 l-50 -104 -60 0 c-33 0 -60 2 -60 4 0 5 43 101 90 202 23 49 57 123 75
164 18 41 51 113 73 160 22 47 129 281 237 520 405 892 413 910 425 910 6 0
10 -4 10 -9z m-2193 -2701 c24 -85 55 -193 69 -240 14 -47 28 -93 30 -102 5
-16 -4 -18 -84 -18 l-90 0 -12 50 -12 50 -64 0 -63 0 -10 -37 c-6 -21 -11 -44
-11 -50 0 -10 -24 -13 -85 -13 -51 0 -85 4 -85 10 0 6 14 61 31 123 43 158 99
360 104 375 4 9 33 12 121 10 l117 -3 44 -155z m313 148 c0 -7 2 -98 3 -203
l2 -190 88 -3 87 -3 0 -54 0 -55 -170 0 -170 0 0 260 0 260 80 0 c57 0 80 -4
80 -12z m420 -93 l0 -105 25 0 c22 0 32 13 77 105 l53 105 87 0 c82 0 88 -1
88 -21 0 -11 -27 -69 -60 -129 l-60 -108 70 -115 c39 -63 70 -122 70 -131 0
-15 -12 -16 -96 -14 -74 2 -99 7 -105 18 -82 151 -102 180 -125 180 -24 0 -24
-1 -24 -100 l0 -100 -90 0 -90 0 0 260 0 260 90 0 90 0 0 -105z m801 -135 c37
-129 71 -245 74 -257 5 -23 4 -23 -84 -23 -98 0 -92 -4 -106 68 -7 32 -7 32
-66 32 -64 0 -69 -4 -83 -72 -6 -28 -7 -28 -91 -28 -92 0 -93 1 -76 56 6 16
35 121 66 234 31 113 58 211 61 218 3 9 32 12 120 10 l117 -3 68 -235z m384
102 l100 -137 3 138 3 137 64 0 65 0 0 -260 0 -260 -77 0 -78 1 -55 72 c-29
40 -72 96 -95 126 l-40 54 -3 -127 -3 -126 -69 0 -70 0 0 260 0 260 78 0 77
-1 100 -137z m698 16 c34 -65 64 -118 67 -118 3 0 32 54 64 120 l60 120 78 0
78 0 0 -260 0 -260 -80 0 -79 0 -3 126 -3 126 -43 -81 c-39 -72 -47 -81 -71
-81 -34 0 -38 4 -90 100 l-41 75 0 -132 0 -133 -80 0 -80 0 0 260 0 261 81 -3
80 -3 62 -117z m815 60 l3 -57 -93 -3 -93 -3 -3 -42 -3 -43 85 0 86 0 0 -50 0
-49 -82 -3 -83 -3 -3 -42 c-2 -30 1 -43 10 -44 7 0 49 -2 93 -2 l80 -2 3 -57
3 -58 -186 0 -185 0 0 260 0 260 183 -2 182 -3 3 -57z m442 12 c0 -27 -1 -53
-2 -57 -2 -5 -24 -6 -50 -5 l-48 4 0 -206 0 -206 -90 0 -90 0 0 200 c0 126 -4
200 -10 201 -5 1 -14 3 -20 4 -5 1 -26 3 -45 4 l-35 1 0 55 0 55 195 0 195 0
0 -50z m438 -203 c40 -138 72 -255 72 -259 0 -5 -40 -8 -89 -8 l-89 0 -9 48
-8 47 -65 0 -64 0 -11 -45 -11 -45 -87 -3 c-48 -1 -87 0 -87 3 0 3 27 101 59
218 33 117 64 231 70 255 l12 42 117 0 117 0 73 -253z m292 48 l0 -205 90 0
90 0 0 -55 0 -55 -175 0 -175 0 0 260 0 260 85 0 85 0 0 -205z"/>
<path d="M761 2232 c-12 -49 -21 -94 -21 -100 0 -7 19 -11 45 -10 25 0 45 4
45 8 0 12 -41 184 -45 188 -2 2 -12 -37 -24 -86z"/>
<path d="M2280 2273 c-6 -32 -16 -74 -21 -93 -15 -58 -13 -61 37 -59 43 3 45
4 40 28 -3 14 -12 60 -21 101 -9 41 -18 76 -20 78 -2 2 -8 -23 -15 -55z"/>
<path d="M5046 2234 c-10 -47 -20 -92 -23 -100 -4 -11 6 -14 41 -14 30 0 46 4
46 12 0 23 -33 173 -40 181 -4 4 -15 -31 -24 -79z"/>
</g>
</svg>
