<?xml version="1.0" standalone="no"?>
<!DOCTYPE svg PUBLIC "-//W3C//DTD SVG 20010904//EN"
 "http://www.w3.org/TR/2001/REC-SVG-20010904/DTD/svg10.dtd">
<svg version="1.0" xmlns="http://www.w3.org/2000/svg"
 width="178.000000pt" height="195.000000pt" viewBox="0 0 178.000000 195.000000"
 preserveAspectRatio="xMidYMid meet">
<metadata>
Created by potrace 1.10, written by Peter Selinger 2001-2011
</metadata>
<g transform="translate(0.000000,195.000000) scale(0.050000,-0.050000)"
fill="#000000" stroke="none">
<path d="M1720 3745 c-25 -52 -119 -257 -210 -455 -90 -198 -192 -418 -225
-490 -33 -71 -173 -377 -311 -680 -138 -302 -282 -617 -320 -700 -65 -140
-418 -915 -512 -1124 -59 -132 -57 -136 75 -136 l118 0 97 214 c54 118 116
251 138 295 l40 81 488 0 489 0 132 -290 133 -290 574 -5 c485 -5 574 -1 574
23 0 27 -51 149 -166 392 -101 216 -494 1082 -494 1089 0 4 -63 139 -140 301
-77 162 -140 297 -140 301 0 4 -50 113 -112 243 -61 130 -120 257 -130 283
-35 90 -94 -18 -550 -1022 -81 -179 -87 -143 81 -506 l128 -279 -371 -5 c-427
-7 -408 -13 -347 110 55 112 685 1486 876 1910 151 336 145 330 205 190 25
-58 185 -411 355 -785 171 -374 375 -824 455 -1000 80 -176 219 -482 310 -680
90 -198 186 -407 212 -465 l47 -105 121 0 c155 0 165 -48 -100 530 -85 187
-180 394 -210 460 -30 66 -102 224 -160 350 -59 127 -198 433 -310 680 -112
248 -256 563 -319 700 -64 138 -163 354 -221 480 -256 560 -232 530 -300 385z
m100 -7 c0 -22 15 -59 133 -313 37 -80 91 -197 120 -260 28 -63 72 -160 97
-215 26 -55 69 -149 96 -210 27 -60 81 -177 119 -260 143 -307 156 -342 143
-364 -8 -12 -5 -17 6 -10 11 7 41 -34 66 -92 26 -57 68 -153 95 -214 27 -60
78 -173 115 -250 142 -302 230 -507 230 -538 0 -17 8 -32 18 -32 10 0 31 -34
48 -75 29 -71 95 -217 246 -540 84 -179 85 -165 -22 -165 l-89 0 -101 211
c-55 116 -100 215 -100 219 0 5 -30 74 -67 154 -37 80 -97 214 -133 296 -37
83 -111 245 -164 360 -54 116 -110 237 -125 270 -15 33 -68 148 -119 256 -51
108 -92 201 -92 205 0 5 -32 79 -72 164 -40 85 -144 313 -232 505 -226 496
-238 520 -258 520 -15 0 -55 -78 -159 -315 -16 -36 -35 -65 -42 -65 -8 0 -20
-29 -28 -64 -8 -36 -22 -78 -31 -95 -9 -17 -50 -103 -90 -191 -91 -203 -173
-379 -262 -570 -144 -307 -186 -401 -186 -421 0 -10 -9 -19 -20 -19 -11 0 -20
-13 -20 -30 0 -16 -32 -100 -72 -185 -39 -85 -85 -186 -101 -225 -17 -38 -44
-95 -61 -126 -58 -110 -46 -114 392 -114 220 0 405 8 411 18 6 10 -22 88 -61
175 -39 86 -89 195 -110 242 -22 47 -44 112 -51 145 -6 32 -20 54 -29 48 -48
-29 52 227 238 612 61 127 144 311 186 410 41 98 84 182 95 186 23 7 108 -172
93 -197 -6 -9 -3 -21 7 -27 27 -17 263 -512 263 -553 0 -12 13 -35 28 -50 16
-16 24 -48 17 -74 -6 -25 -4 -39 5 -31 16 15 219 -385 242 -475 7 -27 19 -49
26 -49 8 0 26 -34 40 -75 15 -41 75 -177 134 -302 59 -125 103 -235 97 -245
-6 -10 -4 -18 5 -18 9 0 31 -34 50 -75 18 -41 66 -143 105 -227 39 -84 71
-158 71 -165 0 -7 -243 -13 -540 -13 l-541 0 -73 154 c-40 84 -73 165 -73 180
0 14 -6 26 -15 26 -13 0 -51 92 -61 150 -12 65 -55 70 -562 70 l-508 0 -82
-175 c-45 -96 -105 -227 -133 -290 l-51 -115 -91 0 c-110 0 -111 -19 10 232
55 115 100 217 100 228 0 11 9 20 20 20 11 0 20 16 20 37 0 20 6 43 14 50 8 8
16 25 18 39 2 13 49 118 103 234 157 330 225 477 225 489 0 10 136 303 232
498 27 53 48 109 48 125 0 15 9 28 20 28 11 0 20 14 20 30 0 17 8 46 18 65
109 212 269 565 262 581 -1 3 20 48 47 100 66 125 205 428 222 481 8 24 22 43
32 43 11 0 19 23 19 50 0 28 18 68 40 90 22 22 40 47 39 55 -1 8 3 31 8 50 10
38 73 49 73 13z"/>
</g>
</svg>
